<?xml version="1.0" encoding="UTF-8"?>
<svg xmlns="http://www.w3.org/2000/svg" id="Layer_2" viewBox="0 0 717.65 177.86">
  <defs>
    <style>.cls-1{fill:#676767;font-family:OpenSans, 'Open Sans';font-size:31px;}.cls-2{fill:#2a2769;}.cls-3{letter-spacing:0em;}.cls-4{fill:#f26722;}</style>
  </defs>
  <g id="Layer_1-2">
    <g>
      <g>
        <text class="cls-1" transform="translate(0 169.46) scale(1.17 1)">
          <tspan x="0" y="0" xml:space="preserve">SOURCING  SUPPLY </tspan>
          <tspan class="cls-3" x="291.53" y="0" xml:space="preserve">AND  PROCUREMENT</tspan>
        </text>
        <g>
          <path class="cls-2" d="M470.57,121.26h45.85v-38.21h31.08c5.89-.03,11.01-.99,15.37-2.89,4.36-1.92,7.95-4.64,10.81-8.18,2.86-3.54,4.98-7.76,6.37-12.65,1.42-4.9,2.09-10.36,2.09-16.36,0-10.1-1.58-18.31-4.76-24.65-3.17-6.34-8.01-10.98-14.49-13.93C556.42,1.42,548.24-.03,538.33,0h-67.76V121.26h0Zm45.85-96.46h7.47c2.41,.03,4.53,.65,6.4,1.9,1.84,1.25,3.31,2.94,4.39,5.15,1.05,2.18,1.59,4.7,1.61,7.56,0,3.65-.42,6.88-1.3,9.71-.85,2.83-2.15,5.07-3.85,6.68-1.73,1.61-3.85,2.43-6.4,2.46h-8.32V24.8Z"></path>
          <path class="cls-2" d="M696.76,34.87c.03-3.76-.42-7.36-1.36-10.82-.93-3.44-2.55-6.61-4.84-9.54-2.26-2.91-5.43-5.47-9.45-7.63-4.05-2.16-9.11-3.84-15.28-5.04-6.14-1.23-13.56-1.81-22.22-1.84-11.55-.03-21.29,1.33-29.13,4.08-7.87,2.75-13.81,7.04-17.83,12.85-3.99,5.79-6,13.28-6.03,22.42,.06,5.17,.96,9.54,2.72,13.12,1.78,3.57,4.19,6.51,7.22,8.85,3,2.32,6.4,4.21,10.16,5.71,3.76,1.49,7.64,2.75,11.66,3.79,4.02,1.01,7.9,2.03,11.66,2.99,3.76,.99,7.16,2.11,10.19,3.41,3,1.31,5.41,2.96,7.19,4.99,1.78,2,2.69,4.59,2.72,7.71,0,1.89-.48,3.57-1.36,5.07-.91,1.49-2.15,2.67-3.71,3.52-1.59,.88-3.4,1.31-5.46,1.33-1.92,0-3.51-.37-4.7-1.12-1.19-.72-2.12-1.73-2.77-3.04-.65-1.36-1.13-2.96-1.39-4.77-.25-1.84-.42-3.87-.48-6.11h-45c-.37,6.53,.42,12,2.38,16.4,1.95,4.4,4.81,7.92,8.55,10.61,3.74,2.67,8.1,4.69,13.11,6.08,4.98,1.36,10.36,2.27,16.08,2.75,5.72,.45,11.55,.67,17.46,.64,5.83,.03,11.38-.4,16.64-1.23,5.26-.83,10.1-2.19,14.49-4.03,4.42-1.87,8.21-4.32,11.46-7.39,3.23-3.07,5.75-6.85,7.5-11.3,1.78-4.45,2.69-9.7,2.72-15.73-.03-5.15-.96-9.55-2.75-13.17-1.78-3.63-4.19-6.69-7.22-9.14-3.06-2.45-6.45-4.51-10.25-6.13-3.76-1.63-7.7-3.01-11.72-4.16-4.02-1.12-7.95-2.21-11.72-3.2-3.79-.99-7.19-2.11-10.22-3.31-3.06-1.2-5.46-2.67-7.25-4.4-1.78-1.73-2.72-3.92-2.75-6.56,0-1.47,.34-2.85,1.02-4.13,.68-1.28,1.61-2.32,2.83-3.12,1.22-.8,2.66-1.2,4.3-1.23,2.38,0,4.27,.27,5.69,.83,1.44,.53,2.49,1.33,3.14,2.37,.68,1.04,1.13,2.27,1.36,3.71,.25,1.44,.37,3.09,.34,4.93h42.29Z"></path>
          <polygon class="cls-2" points="337.59 121.26 376.65 121.26 376.65 49.76 376.99 49.76 403.15 121.26 462.08 121.26 462.08 0 423.02 0 423.02 73.37 422.68 73.37 396.86 0 337.59 0 337.59 121.26"></polygon>
          <path class="cls-2" d="M208.72,34.87c.03-3.76-.42-7.36-1.36-10.82-.93-3.44-2.55-6.61-4.84-9.54-2.26-2.91-5.43-5.47-9.45-7.63-4.05-2.16-9.11-3.84-15.28-5.04C171.64,.61,164.22,.03,155.56,0c-11.55-.03-21.29,1.33-29.13,4.08-7.87,2.75-13.81,7.04-17.83,12.85-3.99,5.79-6,13.28-6.03,22.42,.06,5.17,.96,9.54,2.72,13.12,1.78,3.57,4.19,6.51,7.22,8.85,3,2.32,6.4,4.21,10.16,5.71,3.76,1.49,7.64,2.75,11.66,3.79,4.02,1.01,7.9,2.03,11.66,2.99,3.76,.99,7.16,2.11,10.19,3.41,3,1.31,5.41,2.96,7.19,4.99,1.78,2,2.69,4.59,2.72,7.71,0,1.89-.48,3.57-1.36,5.07-.91,1.49-2.15,2.67-3.71,3.52-1.59,.88-3.4,1.31-5.46,1.33-1.92,0-3.51-.37-4.7-1.12-1.19-.72-2.12-1.73-2.77-3.04-.65-1.36-1.13-2.96-1.39-4.77-.25-1.84-.42-3.87-.48-6.11h-45c-.37,6.53,.42,12,2.38,16.4,1.95,4.4,4.81,7.92,8.55,10.61,3.74,2.67,8.1,4.69,13.1,6.08,4.98,1.36,10.36,2.27,16.08,2.75,5.72,.45,11.55,.67,17.46,.64,5.83,.03,11.38-.4,16.64-1.23,5.26-.83,10.1-2.19,14.49-4.03,4.42-1.87,8.21-4.32,11.46-7.39,3.23-3.07,5.75-6.85,7.5-11.3,1.78-4.45,2.69-9.7,2.72-15.73-.03-5.15-.96-9.55-2.75-13.17-1.78-3.63-4.19-6.69-7.22-9.14-3.06-2.45-6.45-4.51-10.25-6.13-3.76-1.63-7.7-3.01-11.72-4.16-4.02-1.12-7.95-2.21-11.72-3.2-3.79-.99-7.19-2.11-10.22-3.31-3.06-1.2-5.46-2.67-7.25-4.4-1.78-1.73-2.72-3.92-2.75-6.56,0-1.47,.34-2.85,1.02-4.13,.68-1.28,1.61-2.32,2.83-3.12,1.22-.8,2.66-1.2,4.3-1.23,2.38,0,4.27,.27,5.69,.83,1.44,.53,2.49,1.33,3.14,2.37,.68,1.04,1.13,2.27,1.36,3.71,.25,1.44,.37,3.09,.34,4.93h42.29Z"></path>
          <polygon class="cls-2" points="0 121.26 94.08 121.26 94.08 92.39 45.85 92.39 45.85 72.69 90.18 72.69 90.18 46.87 45.85 46.87 45.85 28.87 94.08 28.87 94.08 0 0 0 0 121.26"></polygon>
          <path class="cls-4" d="M326.22,34.87c.03-3.76-.42-7.36-1.36-10.82-.93-3.44-2.55-6.61-4.84-9.54-2.26-2.91-5.43-5.47-9.45-7.63-4.05-2.16-9.11-3.84-15.28-5.04C289.14,.61,281.72,.03,273.06,0c-11.55-.03-21.29,1.33-29.13,4.08-7.87,2.75-13.81,7.04-17.83,12.85-3.99,5.79-6,13.28-6.03,22.42,.06,5.17,.96,9.54,2.72,13.12,1.78,3.57,4.19,6.51,7.22,8.85,3,2.32,6.4,4.21,10.16,5.71,3.76,1.49,7.64,2.75,11.66,3.79,4.02,1.01,7.9,2.03,11.66,2.99,3.76,.99,7.16,2.11,10.19,3.41,3,1.31,5.41,2.96,7.19,4.99,1.78,2,2.69,4.59,2.72,7.71,0,1.89-.48,3.57-1.36,5.07-.91,1.49-2.15,2.67-3.71,3.52-1.59,.88-3.4,1.31-5.46,1.33-1.92,0-3.51-.37-4.7-1.12-1.19-.72-2.12-1.73-2.77-3.04-.65-1.36-1.13-2.96-1.39-4.77-.25-1.84-.42-3.87-.48-6.11h-45c-.37,6.53,.42,12,2.38,16.4,1.95,4.4,4.81,7.92,8.55,10.61,3.74,2.67,8.1,4.69,13.1,6.08,4.98,1.36,10.36,2.27,16.08,2.75,5.72,.45,11.55,.67,17.46,.64,5.83,.03,11.38-.4,16.64-1.23,5.26-.83,10.1-2.19,14.49-4.03,4.42-1.87,8.21-4.32,11.46-7.39,3.23-3.07,5.75-6.85,7.5-11.3,1.78-4.45,2.69-9.7,2.72-15.73-.03-5.15-.96-9.55-2.75-13.17-1.78-3.63-4.19-6.69-7.22-9.14-3.06-2.45-6.45-4.51-10.25-6.13-3.76-1.63-7.7-3.01-11.72-4.16-4.02-1.12-7.95-2.21-11.72-3.2-3.79-.99-7.19-2.11-10.22-3.31-3.06-1.2-5.46-2.67-7.25-4.4-1.78-1.73-2.72-3.92-2.75-6.56,0-1.47,.34-2.85,1.02-4.13,.68-1.28,1.61-2.32,2.83-3.12,1.22-.8,2.66-1.2,4.3-1.23,2.38,0,4.27,.27,5.69,.83,1.44,.53,2.49,1.33,3.14,2.37,.68,1.04,1.13,2.27,1.36,3.71,.25,1.44,.37,3.09,.34,4.93h42.29Z"></path>
        </g>
      </g>
      <path class="cls-2" d="M708.65,0c1.23,0,2.39,.23,3.48,.69s2.06,1.1,2.89,1.94,1.48,1.8,1.94,2.89,.69,2.25,.69,3.48c0,1.63-.4,3.14-1.2,4.52-.8,1.38-1.9,2.48-3.28,3.28s-2.89,1.2-4.52,1.2-3.14-.4-4.52-1.2-2.48-1.9-3.28-3.28c-.8-1.38-1.2-2.89-1.2-4.52s.4-3.14,1.2-4.52c.8-1.38,1.9-2.47,3.28-3.28,1.38-.8,2.89-1.2,4.52-1.2Zm.02,1.76c-1.31,0-2.52,.32-3.63,.97s-1.99,1.53-2.64,2.64c-.65,1.11-.98,2.32-.98,3.63s.33,2.52,.98,3.64,1.54,2,2.65,2.64c1.11,.64,2.32,.96,3.62,.96s2.54-.32,3.64-.97,1.97-1.53,2.61-2.64c.64-1.11,.96-2.32,.96-3.63s-.32-2.53-.96-3.64c-.64-1.11-1.52-1.99-2.62-2.63-1.1-.64-2.31-.96-3.63-.96Zm-2.14,12.05h-1.95V4.27h4.52c.7,0,1.3,.11,1.77,.33s.84,.54,1.08,.95,.36,.89,.36,1.43c0,.67-.23,1.26-.68,1.74-.45,.49-1.09,.79-1.89,.9,.42,.16,.75,.39,1,.7,.25,.31,.59,.83,1.02,1.57l1.13,1.93h-2.41l-.79-1.54c-.37-.69-.68-1.2-.94-1.53-.26-.33-.52-.56-.78-.68s-.58-.18-.95-.18h-.51v3.92Zm0-8.04v2.6h1.56c.7,0,1.24-.09,1.61-.28,.37-.18,.55-.55,.55-1.1,0-.38-.16-.67-.48-.89-.32-.22-.82-.33-1.49-.33h-1.75Z"></path>
    </g>
  </g>
</svg>
